<?xml version="1.0" encoding="UTF-8" standalone="no"?>
<svg
   height="16"
   viewBox="0 0 16 16"
   width="16"
   version="1.1"
   id="svg1"
   sodipodi:docname="character_inventory_system.svg"
   inkscape:version="1.3 (0e150ed6c4, 2023-07-21)"
   xmlns:inkscape="http://www.inkscape.org/namespaces/inkscape"
   xmlns:sodipodi="http://sodipodi.sourceforge.net/DTD/sodipodi-0.dtd"
   xmlns="http://www.w3.org/2000/svg"
   xmlns:svg="http://www.w3.org/2000/svg">
  <defs
     id="defs1" />
  <sodipodi:namedview
     id="namedview1"
     pagecolor="#ffffff"
     bordercolor="#000000"
     borderopacity="0.25"
     inkscape:showpageshadow="2"
     inkscape:pageopacity="0.0"
     inkscape:pagecheckerboard="0"
     inkscape:deskcolor="#d1d1d1"
     inkscape:zoom="34.338873"
     inkscape:cx="3.8003577"
     inkscape:cy="8.0229773"
     inkscape:window-width="2560"
     inkscape:window-height="991"
     inkscape:window-x="-9"
     inkscape:window-y="-9"
     inkscape:window-maximized="1"
     inkscape:current-layer="svg1" />
  <path
     d="m6 1c-.55401 0-1 .44599-1 1v3c0 .55401.44599 1 1 1h1v.99023a1.0001 1.0001 0 0 0 -.31641.0625l-2.0508.68359-.68359-2.0508a1.0001 1.0001 0 0 0 -.99023-.69727 1.0001 1.0001 0 0 0 -.9082 1.3281l1 3a1.0001 1.0001 0 0 0 1.2656.63281l1.6836-.56055v.61133c0 .04088.018715.07566.023437.11523l-4.5781 3.0527a1.0001 1.0001 0 1 0 1.1094 1.6641l5.0566-3.3711 1.4941 2.9863a1.0001 1.0001 0 0 0 1.2109.50195l3-1a1.0001 1.0001 0 1 0 -.63281-1.8965l-2.1777.72461-.97461-1.9512c.2759-.17764.46875-.47227.46875-.82617v-1h1.3828l.72266 1.4473a1.0001 1.0001 0 1 0 1.7891-.89453l-1-2a1.0001 1.0001 0 0 0 -.89453-.55273h-3v-1h1c.55401 0 1-.44599 1-1v-3c0-.55401-.44599-1-1-1zm0 2h1v2h-1z"
     fill="#fc7f7f"
     fill-opacity=".99608"
     id="path1"
     style="fill:#35d4f4;fill-opacity:1" />
</svg>
