<?xml version="1.0" encoding="UTF-8"?>
<!-- Created with Inkscape (http://www.inkscape.org/) -->
<svg width="16" height="16" version="1.1" viewBox="0 0 4.2333 4.2333" xml:space="preserve" xmlns="http://www.w3.org/2000/svg"><rect x="6.2711" y="7.7306" width="0" height="3.1242" rx="2" ry="2" fill="#fff" stroke="#fff" stroke-width="2"/><rect x="1.3545" y="1.419" fill="none" stroke="#fff" stroke-linecap="round" stroke-linejoin="round" stroke-width=".52917"/><path d="m0.7798 0.26458c-0.28678 0.007217-0.51521 0.24059-0.51521 0.52917v2.6458c0 0.29316 0.23601 0.52917 0.52917 0.52917h1.8521v-0.26458h-0.52917v-1.0583h0.52917v-0.16536l-0.52917-0.33073-0.79375 0.49609v-1.8521h0.79375 0.79375v1.3229h0.79375v0.52917h0.26458v-1.8521c0-0.29316-0.23601-0.52917-0.52917-0.52917h-2.6458c-0.004581 0-0.009401-1.1456e-4 -0.013953 0zm2.9244 3.4396v0.1943c0.080724-0.046475 0.14783-0.11358 0.1943-0.1943h-0.1943z" fill="#e0e0e0" stroke-linecap="round" stroke-width=".52917"/><g transform="matrix(.26458 0 0 .26458 3.4396 -272.36)"><path d="m-2 1038.4v2h-2v2h2v2h2v-2h2v-2h-2v-2z" fill="#5fff97"/></g></svg>
