<?xml version="1.0" encoding="UTF-8" standalone="no"?>
<!-- Created with Inkscape (http://www.inkscape.org/) -->

<svg
   width="16"
   height="16"
   viewBox="0 0 4.2333333 4.2333332"
   version="1.1"
   id="svg5"
   inkscape:version="1.2 (dc2aedaf03, 2022-05-15)"
   sodipodi:docname="new_craft_station_type.svg"
   inkscape:export-filename="icon.png"
   inkscape:export-xdpi="3072"
   inkscape:export-ydpi="3072"
   xmlns:inkscape="http://www.inkscape.org/namespaces/inkscape"
   xmlns:sodipodi="http://sodipodi.sourceforge.net/DTD/sodipodi-0.dtd"
   xmlns="http://www.w3.org/2000/svg"
   xmlns:svg="http://www.w3.org/2000/svg">
  <sodipodi:namedview
     id="namedview7"
     pagecolor="#505050"
     bordercolor="#eeeeee"
     borderopacity="1"
     inkscape:showpageshadow="0"
     inkscape:pageopacity="0"
     inkscape:pagecheckerboard="false"
     inkscape:deskcolor="#505050"
     inkscape:document-units="px"
     showgrid="true"
     showguides="true"
     inkscape:zoom="23.204938"
     inkscape:cx="9.6746649"
     inkscape:cy="11.570813"
     inkscape:window-width="2560"
     inkscape:window-height="1001"
     inkscape:window-x="-9"
     inkscape:window-y="-9"
     inkscape:window-maximized="1"
     inkscape:current-layer="layer1"
     inkscape:lockguides="true">
    <inkscape:grid
       type="xygrid"
       id="grid9001" />
  </sodipodi:namedview>
  <defs
     id="defs2" />
  <g
     inkscape:label="Camada 1"
     inkscape:groupmode="layer"
     id="layer1">
    <rect
       style="fill:#e0e0e0;stroke:#ffffff;stroke-width:2;stroke-dasharray:none;stroke-opacity:1;fill-opacity:1"
       id="rect1793"
       height="3.1241555"
       x="6.2711148"
       y="7.7305741"
       rx="2"
       ry="2"
       width="0" />
    <rect
       style="fill:#e0e0e0;stroke:#ffffff;stroke-width:0.529167;stroke-linecap:round;stroke-linejoin:round;stroke-dasharray:none;stroke-opacity:1;fill-opacity:1"
       id="rect6022"
       x="1.3544916"
       y="1.4189913" />
    <path
       id="path18485"
       style="fill:#e0e0e0;stroke:none;stroke-width:0.341077;stroke-linecap:round;fill-opacity:1"
       d="M 1.3229166 0.26458333 L 1.3229166 0.52916666 L 0.52916666 0.52916666 L 0.26458333 0.52916666 L 0.26458333 1.0583333 L 0.52916666 1.0583333 L 1.3229166 1.0583333 L 1.3229166 1.3229166 L 1.7197916 1.3229166 L 2.1166666 1.3229166 L 2.1166666 0.52916666 L 1.7197916 0.26458333 L 1.3229166 0.26458333 z M 0.52916666 1.5875 C 0.38258822 1.5875 0.26458333 1.7055047 0.26458333 1.8520833 C 0.26458333 1.9986619 0.38258822 2.1166666 0.52916666 2.1166666 L 0.97151691 2.1166666 L 0.29817301 3.5873779 C 0.23014409 3.7359893 0.30009326 3.8983233 0.4547526 3.9511799 C 0.60941189 4.004037 0.78876632 3.9266753 0.85679523 3.7780639 L 1.0118245 3.4395833 L 1.4526245 3.4395833 L 1.9709391 2.9104166 L 1.2536702 2.9104166 L 1.5580444 2.2458577 C 1.5776653 2.2029951 1.5859148 2.1588397 1.5838826 2.1166666 L 2.6422159 2.1166666 C 2.6412309 2.1360314 2.6424059 2.1557339 2.6458333 2.1755778 L 2.6458333 2.1166666 L 3.260266 2.1166666 L 3.7041666 2.1166666 C 3.8507448 2.1166666 3.9687499 1.9986619 3.9687499 1.8520833 C 3.9687499 1.7055047 3.8507448 1.5875 3.7041666 1.5875 L 0.52916666 1.5875 z M 2.1166666 3.2468302 L 1.7709513 3.5718749 L 2.4747843 4.2333332 L 2.6458333 4.2333332 L 2.6458333 3.7041666 L 2.1166666 3.7041666 L 2.1166666 3.2468302 z M 3.852478 3.7041666 C 3.8221705 3.7699485 3.7698811 3.8245393 3.7041666 3.8597127 L 3.7041666 4.2333332 L 4.2333332 4.2333332 L 4.2333332 3.9026041 L 4.2333332 3.7041666 L 3.852478 3.7041666 z " />
    <g
       transform="matrix(0.26458333,0,0,0.26458333,3.4395833,-272.36208)"
       id="g248">
      <path
         d="m -2,1038.4 v 2 h -2 v 2 h 2 v 2 h 2 v -2 h 2 v -2 H 0 v -2 z"
         fill="#5fff97"
         id="path246-9" />
    </g>
  </g>
</svg>
