<!DOCTYPE svg PUBLIC "-//W3C//DTD SVG 1.1//EN" "http://www.w3.org/Graphics/SVG/1.1/DTD/svg11.dtd">
<!-- Uploaded to: SVG Repo, www.svgrepo.com, Transformed by: SVG Repo Mixer Tools -->
<svg width="16px" height="16px" viewBox="0 0 24 24" fill="none" xmlns="http://www.w3.org/2000/svg" stroke="#ffffff" stroke-width="0.00024000000000000003">
<g id="SVGRepo_bgCarrier" stroke-width="0"/>
<g id="SVGRepo_tracerCarrier" stroke-linecap="round" stroke-linejoin="round"/>
<g id="SVGRepo_iconCarrier"> <path d="M20.0984 6.94C20.0984 7.48 19.8084 7.97 19.3484 8.22L17.6084 9.16L16.1284 9.95L13.0584 11.61C12.7284 11.79 12.3684 11.88 11.9984 11.88C11.6284 11.88 11.2684 11.79 10.9384 11.61L4.64844 8.22C4.18844 7.97 3.89844 7.48 3.89844 6.94C3.89844 6.4 4.18844 5.91 4.64844 5.66L6.61844 4.6L8.18844 3.75L10.9384 2.27C11.5984 1.91 12.3984 1.91 13.0584 2.27L19.3484 5.66C19.8084 5.91 20.0984 6.4 20.0984 6.94Z" fill="#ffffff"/> <path d="M9.89875 12.7901L4.04875 9.87014C3.59875 9.64014 3.07875 9.67014 2.64875 9.93014C2.21875 10.1901 1.96875 10.6501 1.96875 11.1501V16.6801C1.96875 17.6401 2.49875 18.5001 3.35875 18.9301L9.20875 21.8501C9.40875 21.9501 9.62875 22.0001 9.84875 22.0001C10.1088 22.0001 10.3688 21.9301 10.5988 21.7801C11.0288 21.5201 11.2787 21.0601 11.2787 20.5601V15.0301C11.2887 14.0801 10.7587 13.2201 9.89875 12.7901Z" fill="#ffffff"/> <path d="M22.0309 11.1496V16.6796C22.0309 17.6296 21.5009 18.4896 20.6409 18.9196L14.7909 21.8496C14.5909 21.9496 14.3709 21.9996 14.1509 21.9996C13.8909 21.9996 13.6309 21.9296 13.3909 21.7796C12.9709 21.5196 12.7109 21.0596 12.7109 20.5596V15.0396C12.7109 14.0796 13.2409 13.2196 14.1009 12.7896L16.2509 11.7196L17.7509 10.9696L19.9509 9.86964C20.4009 9.63964 20.9209 9.65964 21.3509 9.92964C21.7709 10.1896 22.0309 10.6496 22.0309 11.1496Z" fill="#ffffff"/> <path d="M17.6111 9.16L16.1311 9.95L6.62109 4.6L8.19109 3.75L17.3711 8.93C17.4711 8.99 17.5511 9.07 17.6111 9.16Z" fill="#ffffff"/> <path d="M17.75 10.9688V13.2387C17.75 13.6487 17.41 13.9887 17 13.9887C16.59 13.9887 16.25 13.6487 16.25 13.2387V11.7188L17.75 10.9688Z" fill="#ffffff"/> </g>
</svg>