<!DOCTYPE svg PUBLIC "-//W3C//DTD SVG 1.1//EN" "http://www.w3.org/Graphics/SVG/1.1/DTD/svg11.dtd">
<!-- Uploaded to: SVG Repo, www.svgrepo.com, Transformed by: SVG Repo Mixer Tools -->
<svg fill="#ffffff" height="16px" width="16px" version="1.1" id="Icons" xmlns="http://www.w3.org/2000/svg" xmlns:xlink="http://www.w3.org/1999/xlink" viewBox="0 0 32 32" xml:space="preserve" stroke="#ffffff" stroke-width="0.00032">
<g id="SVGRepo_bgCarrier" stroke-width="0"/>
<g id="SVGRepo_tracerCarrier" stroke-linecap="round" stroke-linejoin="round"/>
<g id="SVGRepo_iconCarrier"> <g> <path d="M7.4,7h18.2C26.5,6.3,27,5.2,27,4V3c0-0.6-0.4-1-1-1H7C6.4,2,6,2.4,6,3v1C6,5.2,6.5,6.3,7.4,7z"/> <path d="M9,9v7c0,0.6,0.4,1,1,1h5v3c0,0.1,0,0.3,0.1,0.4l2.3,5.3c0.2,0.5,0.2,1.1-0.1,1.6c-0.6,0.9-2.1,1-2.8,0 c-0.3-0.5-0.4-1-0.2-1.5c0.4-1,0.6-2.1,0.6-3.2c0-0.6-0.4-1-1-1s-1,0.4-1,1c0,0.8-0.2,1.7-0.5,2.5c-0.5,1.1-0.3,2.4,0.4,3.4 s1.8,1.6,3,1.6c1.2,0,2.4-0.6,3.1-1.7s0.8-2.3,0.3-3.5L17,19.8V17h6c0.6,0,1-0.4,1-1V9H9z"/> </g> </g>
</svg>