<?xml version="1.0" encoding="UTF-8"?>
<!-- Created with Inkscape (http://www.inkscape.org/) -->
<svg width="16" height="16" version="1.1" viewBox="0 0 4.2333 4.2333" xmlns="http://www.w3.org/2000/svg">
 <g fill="#35d4f4">
  <rect x="6.2711" y="7.7306" width="0" height="3.1242" rx="2" ry="2" stroke="#fff" stroke-width="2"/>
  <rect x="1.3545" y="1.419" stroke="#fff" stroke-linecap="round" stroke-linejoin="round" stroke-width=".52917"/>
  <path d="m0.52917 3.175c-0.14658 0-0.26458 0.118-0.26458 0.26458 0 0.14658 0.118 0.26458 0.26458 0.26458h0.52917a0.52917 0.52917 0 0 0 0.52917 0.52917 0.52917 0.52917 0 0 0 0.52917-0.52917h0.52917a0.52917 0.52917 0 0 0 0.52917 0.52917 0.52917 0.52917 0 0 0 0.52917-0.52917c0.14658 0 0.26458-0.118 0.26458-0.26458 0-0.14658-0.118-0.26458-0.26458-0.26458h-0.51573-0.013436-2.6458zm1.0583 0.26458a0.26458 0.26458 0 0 1 0.26458 0.26458 0.26458 0.26458 0 0 1-0.26458 0.26458 0.26458 0.26458 0 0 1-0.26458-0.26458 0.26458 0.26458 0 0 1 0.26458-0.26458zm1.5875 0a0.26458 0.26458 0 0 1 0.26458 0.26458 0.26458 0.26458 0 0 1-0.26458 0.26458 0.26458 0.26458 0 0 1-0.26458-0.26458 0.26458 0.26458 0 0 1 0.26458-0.26458z"/>
  <rect x="2.1167" y=".26458" width="1.4552" height=".52917" ry=".26458"/>
  <rect transform="rotate(-90)" x="-3.7042" y=".79375" width="3.175" height=".52917" ry=".26458"/>
  <rect transform="rotate(-90)" x="-2.6458" y="3.175" width="2.3813" height=".52917" ry=".26458"/>
  <rect x="1.0583" y="2.1167" width="2.9104" height="1.3229" ry=".16536" stroke-linecap="round" stroke-width=".6205"/>
  <rect x="2.6458" y="1.5875" width="1.0583" height="1.3229" ry=".16536" stroke-linecap="round" stroke-width=".37418"/>
  <rect transform="rotate(-76.643)" x="-2.1851" y="2.1544" width="2.3813" height=".52917" ry=".26458"/>
  <rect x="-6.9389e-17" y="3.175" width="1.0583" height=".52917" ry=".26458"/>
 </g>
</svg>
