<?xml version="1.0" encoding="UTF-8" standalone="no"?>
<!-- Created with Inkscape (http://www.inkscape.org/) -->

<svg
   width="16"
   height="16"
   version="1.1"
   viewBox="0 0 4.2333 4.2333"
   id="svg264"
   sodipodi:docname="item_category_white.svg"
   inkscape:version="1.4.2 (f4327f4, 2025-05-13)"
   xmlns:inkscape="http://www.inkscape.org/namespaces/inkscape"
   xmlns:sodipodi="http://sodipodi.sourceforge.net/DTD/sodipodi-0.dtd"
   xmlns="http://www.w3.org/2000/svg"
   xmlns:svg="http://www.w3.org/2000/svg">
  <defs
     id="defs268" />
  <sodipodi:namedview
     id="namedview266"
     pagecolor="#505050"
     bordercolor="#eeeeee"
     borderopacity="1"
     inkscape:showpageshadow="0"
     inkscape:pageopacity="0"
     inkscape:pagecheckerboard="0"
     inkscape:deskcolor="#505050"
     showgrid="true"
     inkscape:lockguides="false"
     inkscape:zoom="50.875"
     inkscape:cx="16.029484"
     inkscape:cy="8.5798526"
     inkscape:window-width="2560"
     inkscape:window-height="991"
     inkscape:window-x="-9"
     inkscape:window-y="-9"
     inkscape:window-maximized="1"
     inkscape:current-layer="svg264">
    <inkscape:grid
       type="xygrid"
       id="grid495"
       originx="0"
       originy="0"
       spacingy="1"
       spacingx="1"
       units="px" />
  </sodipodi:namedview>
  <path
     id="rect2064"
     style="fill:#35d4f4;stroke-width:0.264581;stroke-linecap:round"
     d="M 0.82319908 0.5291625 C 0.66033498 0.5291625 0.5291625 0.66033498 0.5291625 0.82319908 L 0.5291625 2.8809384 C 0.5291625 2.8860279 0.52942621 2.8909 0.52967926 2.8959245 A 0.79374373 0.79374367 0 0 0 0.5291625 2.9103937 A 0.79374373 0.79374367 0 0 0 1.3229062 3.7041375 A 0.79374373 0.79374367 0 0 0 2.11665 2.9103937 A 0.79374373 0.79374367 0 0 0 2.1161332 2.8959245 C 2.1161768 2.8950592 2.1160971 2.8942079 2.1161332 2.8933407 A 0.79374373 0.79374367 0 0 0 2.1161332 2.8928239 A 0.79374373 0.79374367 0 0 0 2.1161332 2.8923071 A 0.79374373 0.79374367 0 0 0 2.1161332 2.8917904 A 0.79374373 0.79374367 0 0 0 2.1161332 2.8912736 A 0.79374373 0.79374367 0 0 0 2.1161332 2.8907569 A 0.79374373 0.79374367 0 0 0 2.1161332 2.8902401 A 0.79374373 0.79374367 0 0 0 2.1161332 2.8897233 C 2.1162208 2.8867593 2.11665 2.8839244 2.11665 2.8809384 L 2.11665 0.82319908 C 2.11665 0.66033498 1.9854777 0.5291625 1.8226134 0.5291625 L 0.82319908 0.5291625 z M 1.3229062 2.6458125 A 0.26458126 0.26458126 0 0 1 1.5874875 2.9103937 A 0.26458126 0.26458126 0 0 1 1.3229062 3.174975 A 0.26458126 0.26458126 0 0 1 1.058325 2.9103937 A 0.26458126 0.26458126 0 0 1 1.3229062 2.6458125 z " />
  <path
     id="path2237"
     style="fill:#e0e0e0;stroke-width:0.264581;stroke-linecap:round;fill-opacity:1"
     d="M 0.82319908 0.5291625 C 0.66033515 0.5291625 0.5291625 0.66033515 0.5291625 0.82319908 L 0.5291625 2.8809384 C 0.5291625 2.8860279 0.52942621 2.8909 0.52967926 2.8959245 A 0.79374373 0.79374367 0 0 0 0.5291625 2.9103937 A 0.79374373 0.79374367 0 0 0 1.3229062 3.7041375 A 0.79374373 0.79374367 0 0 0 2.11665 2.9103937 A 0.79374373 0.79374367 0 0 0 2.1161332 2.8959245 C 2.1161768 2.8950592 2.1160971 2.8942079 2.1161332 2.8933407 A 0.79374373 0.79374367 0 0 0 2.1161332 2.8928239 A 0.79374373 0.79374367 0 0 0 2.1161332 2.8923071 A 0.79374373 0.79374367 0 0 0 2.1161332 2.8917904 A 0.79374373 0.79374367 0 0 0 2.1161332 2.8912736 A 0.79374373 0.79374367 0 0 0 2.1161332 2.8907569 A 0.79374373 0.79374367 0 0 0 2.1161332 2.8902401 A 0.79374373 0.79374367 0 0 0 2.1161332 2.8897233 C 2.1162208 2.8867593 2.11665 2.8839244 2.11665 2.8809384 L 2.11665 0.82319908 C 2.11665 0.66033515 1.9854776 0.5291625 1.8226134 0.5291625 L 0.82319908 0.5291625 z M 2.6137734 0.88314327 C 2.5386064 0.88314327 2.4636168 0.91186119 2.4060357 0.96944224 L 2.3812312 0.99424673 L 2.3812312 3.2390533 L 3.528439 2.0918455 C 3.6436011 1.9766834 3.6436013 1.7915325 3.528439 1.6763703 L 2.821511 0.96944224 C 2.7639299 0.91186119 2.6889402 0.88314328 2.6137734 0.88314327 z M 1.3229062 2.6458125 A 0.26458126 0.26458126 0 0 1 1.5874875 2.9103937 A 0.26458126 0.26458126 0 0 1 1.3229062 3.174975 A 0.26458126 0.26458126 0 0 1 1.058325 2.9103937 A 0.26458126 0.26458126 0 0 1 1.3229062 2.6458125 z " />
</svg>
