<?xml version="1.0" encoding="UTF-8" standalone="no"?>
<!-- Created with Inkscape (http://www.inkscape.org/) -->

<svg
   width="16"
   height="16"
   version="1.1"
   viewBox="0 0 4.2333 4.2333"
   id="svg3"
   sodipodi:docname="loot_generator.svg"
   inkscape:version="1.4.2 (f4327f4, 2025-05-13)"
   xmlns:inkscape="http://www.inkscape.org/namespaces/inkscape"
   xmlns:sodipodi="http://sodipodi.sourceforge.net/DTD/sodipodi-0.dtd"
   xmlns="http://www.w3.org/2000/svg"
   xmlns:svg="http://www.w3.org/2000/svg">
  <defs
     id="defs3" />
  <sodipodi:namedview
     id="namedview3"
     pagecolor="#ffffff"
     bordercolor="#000000"
     borderopacity="0.25"
     inkscape:showpageshadow="2"
     inkscape:pageopacity="0.0"
     inkscape:pagecheckerboard="0"
     inkscape:deskcolor="#d1d1d1"
     showgrid="true"
     inkscape:zoom="34.162096"
     inkscape:cx="1.4782465"
     inkscape:cy="7.596138"
     inkscape:window-width="2560"
     inkscape:window-height="991"
     inkscape:window-x="-9"
     inkscape:window-y="-9"
     inkscape:window-maximized="1"
     inkscape:current-layer="svg3">
    <inkscape:grid
       id="grid3"
       units="px"
       originx="0"
       originy="0"
       spacingx="0.26458125"
       spacingy="0.26458125"
       empcolor="#e50000"
       empopacity="0.30196078"
       color="#e5008c"
       opacity="0.14901961"
       empspacing="8"
       enabled="true"
       visible="true" />
  </sodipodi:namedview>
  <rect
     x="6.2711"
     y="7.7306"
     width="0"
     height="3.1242"
     rx="2"
     ry="2"
     fill="#fff"
     stroke="#fff"
     stroke-width="2"
     id="rect1" />
  <path
     id="rect3"
     style="fill:#35d4f4;fill-opacity:1;stroke-width:0.264581"
     d="M 1.058325 0.5291625 C 0.76516889 0.5291625 0.5291625 0.76516896 0.5291625 1.058325 L 0.5291625 3.174975 C 0.5291625 3.468131 0.76516889 3.7041375 1.058325 3.7041375 L 3.174975 3.7041375 C 3.4681311 3.7041375 3.7041375 3.468131 3.7041375 3.174975 L 3.7041375 1.058325 C 3.7041375 0.76516896 3.4681311 0.5291625 3.174975 0.5291625 L 1.058325 0.5291625 z M 2.9103937 1.058325 A 0.26458126 0.26458126 0 0 1 3.174975 1.3229062 A 0.26458126 0.26458126 0 0 1 2.9103937 1.5874875 A 0.26458126 0.26458126 0 0 1 2.6458125 1.3229062 A 0.26458126 0.26458126 0 0 1 2.9103937 1.058325 z M 2.11665 1.8520687 A 0.26458126 0.26458126 0 0 1 2.3812312 2.11665 A 0.26458126 0.26458126 0 0 1 2.11665 2.3812312 A 0.26458126 0.26458126 0 0 1 1.8520687 2.11665 A 0.26458126 0.26458126 0 0 1 2.11665 1.8520687 z M 1.3229062 2.6458125 A 0.26458126 0.26458126 0 0 1 1.5874875 2.9103937 A 0.26458126 0.26458126 0 0 1 1.3229062 3.174975 A 0.26458126 0.26458126 0 0 1 1.058325 2.9103937 A 0.26458126 0.26458126 0 0 1 1.3229062 2.6458125 z " />
</svg>
