<?xml version="1.0" encoding="UTF-8"?>
<!-- Created with Inkscape (http://www.inkscape.org/) -->
<svg width="16" height="16" version="1.1" viewBox="0 0 4.2333 4.2333" xmlns="http://www.w3.org/2000/svg">
 <g fill="#e0e0e0">
  <rect x="6.2711" y="7.7306" width="0" height="3.1242" rx="2" ry="2" stroke="#fff" stroke-width="2"/>
  <rect x="1.3545" y="1.419" stroke="#fff" stroke-linecap="round" stroke-linejoin="round" stroke-width=".52917"/>
  <path d="m1.3229 0.26458v0.26458h-0.79375-0.26458v0.52917h0.26458 0.79375v0.26458h0.39688 0.39688v-0.79375l-0.39688-0.26458h-0.39688zm-0.79375 1.3229c-0.14658 0-0.26458 0.118-0.26458 0.26458s0.118 0.26458 0.26458 0.26458h0.44235l-0.67334 1.4707c-0.068029 0.14861 0.0019202 0.31095 0.15658 0.3638 0.15466 0.052857 0.33401-0.024505 0.40204-0.17312l0.15503-0.33848h0.4408l0.51831-0.52917h-0.71727l0.30437-0.66456c0.019621-0.042863 0.02787-0.087018 0.025838-0.12919h1.0583c-9.85e-4 0.019365 1.9e-4 0.039067 0.0036174 0.058911v-0.058911h0.61443 0.4439c0.14658 0 0.26458-0.118 0.26458-0.26458s-0.11801-0.26458-0.26458-0.26458h-3.175zm1.5875 1.6593-0.34572 0.32504 0.70383 0.66146h0.17105v-0.52917h-0.52917v-0.45734zm1.7358 0.45734c-0.030308 0.065782-0.082597 0.12037-0.14831 0.15555v0.37362h0.52917v-0.33073-0.19844h-0.38086z"/>
 </g>
 <g transform="matrix(.26458 0 0 .26458 3.4396 -272.36)">
  <path d="m-2 1038.4v2h-2v2h2v2h2v-2h2v-2h-2v-2z" fill="#5fff97"/>
 </g>
</svg>
