<?xml version="1.0" encoding="UTF-8"?>
<!-- Created with Inkscape (http://www.inkscape.org/) -->
<svg width="16" height="16" version="1.1" viewBox="0 0 4.2333 4.2333" xml:space="preserve" xmlns="http://www.w3.org/2000/svg"><g><rect x="6.2711" y="7.7306" width="0" height="3.1242" rx="2" ry="2" fill="#35d4f4" stroke="#fff" stroke-width="2"/><rect x="1.3545" y="1.419" fill="#35d4f4" stroke="#fff" stroke-linecap="round" stroke-linejoin="round" stroke-width=".52917"/><path d="m0.77979 0.26458c-0.28678 0.007217-0.51521 0.24058-0.51521 0.52916v2.6458c0 0.29316 0.236 0.52916 0.52916 0.52916h2.1166l-0.79374-0.79374v-0.26458h0.52916v-0.42994l-0.52916-0.33073-0.79374 0.49609v-1.8521h1.5875v1.0583h0.79374v1.0583h0.26458v-2.1166c0-0.29316-0.236-0.52916-0.52916-0.52916h-2.6458c-0.004581 0-0.0094005-1.1456e-4 -0.013953 0zm3.1889 3.175-0.52916 0.52916c0.29316 0 0.52916-0.236 0.52916-0.52916z" fill="#e0e0e0"/></g><g transform="matrix(.26458 0 0 .26458 2.4524 -274.3)"><circle cx="3" cy="1048.4" r="0" fill="#e0e0e0"/><path d="m2.7311 1051.7 3-3h-2v-4h-2v4h-2z" fill="#5fb2ff" fill-rule="evenodd"/></g></svg>
