<?xml version="1.0" encoding="UTF-8"?>
<!-- Created with Inkscape (http://www.inkscape.org/) -->
<svg width="16" height="16" version="1.1" viewBox="0 0 4.2333 4.2333" xmlns="http://www.w3.org/2000/svg">
 <g>
  <path d="m1.0583 0.26458c-0.29316 0-0.52917 0.23601-0.52917 0.52917v2.1167 0.92604c0 0.073289 0.059002 0.13229 0.13229 0.13229h1.9844v-0.26458h-0.52917-1.0583-0.13901c-0.070092-0.0035301-0.12557-0.061292-0.12557-0.13229 0-0.073289 0.059002-0.13229 0.13229-0.13229h0.13229 1.0583v-0.79375h0.52917v-0.52917h1.0583v-1.3229c0-0.29316-0.23601-0.52917-0.52917-0.52917h-2.1167zm1.5772 0.81597c0.09987-0.0012292 0.20058 0.035425 0.27854 0.10955 0.00248 0.00236 0.0048047 0.0048047 0.0072347 0.0072347 0.15547 0.15547 0.15547 0.40574 0 0.56121l-0.18707 0.18707c-0.12957 0.12957-0.32494 0.15151-0.47646 0.065112l-0.85214 0.85163c-0.051823 0.051823-0.13061 0.056459-0.17725 0.0098186-0.046641-0.046641-0.043039-0.12646 0.008785-0.17828l0.85783-0.85731c-0.070785-0.14755-0.044581-0.32956 0.078031-0.45217l0.18707-0.18707c0.07652-0.07652 0.17557-0.11556 0.27544-0.11679z" fill="#e0e0e0" stroke-linecap="round" stroke-width=".26458"/>
  <rect x="6.2711" y="7.7306" width="0" height="3.1242" rx="2" ry="2" fill="#35d4f4" stroke="#fff" stroke-width="2"/>
  <rect x="1.3545" y="1.419" fill="#35d4f4" stroke="#fff" stroke-linecap="round" stroke-linejoin="round" stroke-width=".52917"/>
 </g>
 <g transform="matrix(.26458 0 0 .26458 3.4396 -272.36)">
  <path d="m-2 1038.4v2h-2v2h2v2h2v-2h2v-2h-2v-2z" fill="#5fff97"/>
 </g>
</svg>
