<?xml version="1.0" encoding="UTF-8"?>
<!-- Created with Inkscape (http://www.inkscape.org/) -->
<svg width="16" height="16" version="1.1" viewBox="0 0 4.2333 4.2333" xmlns="http://www.w3.org/2000/svg">
 <path d="m0.8232 0.52916c-0.16286 0-0.29404 0.13117-0.29404 0.29404v2.0577c0 0.0050895 2.6371e-4 0.0099616 5.1676e-4 0.014986a0.79374 0.79374 0 0 0-5.1676e-4 0.014469 0.79374 0.79374 0 0 0 0.79374 0.79374 0.79374 0.79374 0 0 0 0.79374-0.79374 0.79374 0.79374 0 0 0-5.168e-4 -0.014469c4.36e-5 -8.653e-4 -3.61e-5 -0.0017166 0-0.0025838a0.79374 0.79374 0 0 0 0-5.168e-4 0.79374 0.79374 0 0 0 0-5.168e-4 0.79374 0.79374 0 0 0 0-5.167e-4 0.79374 0.79374 0 0 0 0-5.168e-4 0.79374 0.79374 0 0 0 0-5.167e-4 0.79374 0.79374 0 0 0 0-5.168e-4 0.79374 0.79374 0 0 0 0-5.168e-4c8.76e-5 -0.002964 5.168e-4 -0.0057989 5.168e-4 -0.0087849v-2.0577c0-0.16286-0.13117-0.29404-0.29404-0.29404h-0.99941zm0.49971 2.1166a0.26458 0.26458 0 0 1 0.26458 0.26458 0.26458 0.26458 0 0 1-0.26458 0.26458 0.26458 0.26458 0 0 1-0.26458-0.26458 0.26458 0.26458 0 0 1 0.26458-0.26458z" fill="#35d4f4" stroke-linecap="round" stroke-width=".26458"/>
 <path d="m0.8232 0.52916c-0.16286 0-0.29404 0.13117-0.29404 0.29404v2.0577c0 0.00509 2.6371e-4 0.00996 5.1676e-4 0.014986-2.1624e-4 0.00482-3.885e-4 0.00964-5.1676e-4 0.014469-7e-8 0.43837 0.35537 0.79374 0.79374 0.79374s0.79374-0.35537 0.79374-0.79374c-1.283e-4 -0.00482-3.005e-4 -0.00965-5.168e-4 -0.014469 4.36e-5 -8.653e-4 -3.61e-5 -0.00172 0-0.00258v-0.0036174c8.76e-5 -0.00296 5.168e-4 -0.0058 5.168e-4 -0.00878v-2.0577c0-0.16286-0.13117-0.29404-0.29404-0.29404zm1.7906 0.35398c-0.075167 0-0.15016 0.028718-0.20774 0.086299l-0.024804 0.024804 1e-7 1.6516h0.26458l-5e-7 -0.52916h0.26458 0.59324l0.024805-0.024805c0.11516-0.11516 0.11516-0.30031 0-0.41548l-0.70693-0.70693c-0.057581-0.057581-0.13257-0.086299-0.20774-0.086299zm-1.2909 1.7627c0.14612 0 0.26458 0.11846 0.26458 0.26458s-0.11846 0.26458-0.26458 0.26458-0.26458-0.11846-0.26458-0.26458c0-0.14612 0.11846-0.26458 0.26458-0.26458z" fill="#e0e0e0" stroke-linecap="round" stroke-width=".26458"/>
 <g transform="matrix(.26458 0 0 .26458 3.4396 -272.36)">
  <path d="m-2 1038.4v2h-2v2h2v2h2v-2h2v-2h-2v-2z" fill="#5fff97"/>
 </g>
</svg>
