<?xml version="1.0" encoding="UTF-8" standalone="no"?>
<!-- Created with Inkscape (http://www.inkscape.org/) -->

<svg
   width="16"
   height="16"
   viewBox="0 0 4.2333333 4.2333332"
   version="1.1"
   id="svg5"
   inkscape:version="1.2 (dc2aedaf03, 2022-05-15)"
   sodipodi:docname="recipe.svg"
   inkscape:export-filename="icon.png"
   inkscape:export-xdpi="3072"
   inkscape:export-ydpi="3072"
   xmlns:inkscape="http://www.inkscape.org/namespaces/inkscape"
   xmlns:sodipodi="http://sodipodi.sourceforge.net/DTD/sodipodi-0.dtd"
   xmlns="http://www.w3.org/2000/svg"
   xmlns:svg="http://www.w3.org/2000/svg">
  <sodipodi:namedview
     id="namedview7"
     pagecolor="#505050"
     bordercolor="#eeeeee"
     borderopacity="1"
     inkscape:showpageshadow="0"
     inkscape:pageopacity="0"
     inkscape:pagecheckerboard="false"
     inkscape:deskcolor="#505050"
     inkscape:document-units="px"
     showgrid="true"
     showguides="true"
     inkscape:zoom="46.409876"
     inkscape:cx="9.2114015"
     inkscape:cy="8.349516"
     inkscape:window-width="2560"
     inkscape:window-height="1001"
     inkscape:window-x="-9"
     inkscape:window-y="-9"
     inkscape:window-maximized="1"
     inkscape:current-layer="layer1"
     inkscape:lockguides="true">
    <inkscape:grid
       type="xygrid"
       id="grid9001" />
  </sodipodi:namedview>
  <defs
     id="defs2" />
  <g
     inkscape:label="Camada 1"
     inkscape:groupmode="layer"
     id="layer1">
    <path
       id="rect1518"
       style="fill:#ffe337;stroke-width:0.264583;stroke-linecap:round"
       d="M 1.0583333 0.26458333 C 0.7651753 0.26458333 0.52916666 0.50059196 0.52916666 0.79374998 L 0.52916666 2.9104166 C 0.52916666 3.2035747 0.7651753 3.4395833 1.0583333 3.4395833 L 3.1749999 3.4395833 C 3.4681579 3.4395833 3.7041666 3.2035747 3.7041666 2.9104166 L 3.7041666 0.79374998 C 3.7041666 0.50059196 3.4681579 0.26458333 3.1749999 0.26458333 L 1.0583333 0.26458333 z M 2.635498 1.0805542 C 2.735368 1.079325 2.8360772 1.1159789 2.914034 1.1901082 C 2.916514 1.1924682 2.9188387 1.1949129 2.9212687 1.1973429 C 3.076739 1.3528133 3.076739 1.6030786 2.9212687 1.758549 L 2.7342 1.9456176 C 2.6046297 2.0751885 2.4092646 2.0971299 2.2577433 2.0107299 L 1.4055989 2.8623575 C 1.3537753 2.9141805 1.2749898 2.918817 1.2283488 2.8721761 C 1.1817074 2.8255349 1.1853099 2.7457163 1.2371338 2.6938924 L 2.0949625 1.8365804 C 2.0241774 1.6890306 2.0503815 1.5070239 2.1729939 1.3844116 L 2.3600626 1.1973429 C 2.4365832 1.1208223 2.535628 1.0817834 2.635498 1.0805542 z " />
    <rect
       style="fill:#ffffff;stroke:#ffffff;stroke-width:2;stroke-dasharray:none;stroke-opacity:1"
       id="rect1793"
       height="3.1241555"
       x="6.2711148"
       y="7.7305741"
       rx="2"
       ry="2"
       width="0" />
    <rect
       style="fill:none;stroke:#ffffff;stroke-width:0.529167;stroke-linecap:round;stroke-linejoin:round;stroke-dasharray:none;stroke-opacity:1"
       id="rect6022"
       x="1.3544916"
       y="1.4189913" />
    <rect
       style="fill:#ffe337;fill-opacity:1;stroke-width:0.264583;stroke-linecap:round"
       id="rect648"
       width="3.175"
       height="0.26458341"
       x="0.52916664"
       y="3.7041667"
       rx="0.13229166"
       ry="0.1322917" />
    <path
       id="rect1589"
       style="fill:#ffe337;fill-opacity:1;stroke-width:0.264583;stroke-linecap:round"
       d="M 0.52916666 2.6458333 L 0.52916666 3.8364583 L 0.79374998 3.8364583 L 1.0583333 3.8364583 L 1.0583333 3.7041666 L 0.92604165 3.7041666 C 0.85275214 3.7041666 0.79374998 3.6451645 0.79374998 3.5718749 C 0.79374998 3.4985854 0.85275214 3.4395833 0.92604165 3.4395833 L 1.0583333 3.4395833 L 1.0583333 2.6458333 L 0.79374998 2.6458333 L 0.52916666 2.6458333 z " />
    <g
       id="g1599"
       transform="translate(1.0847919)" />
  </g>
</svg>
