<?xml version="1.0" encoding="UTF-8" standalone="no"?>
<!-- Created with Inkscape (http://www.inkscape.org/) -->

<svg
   width="16"
   height="16"
   viewBox="0 0 4.2333333 4.2333332"
   version="1.1"
   id="svg5"
   inkscape:version="1.2 (dc2aedaf03, 2022-05-15)"
   sodipodi:docname="stone_pickaxe.svg"
   inkscape:export-filename="stone-axe.png"
   inkscape:export-xdpi="192"
   inkscape:export-ydpi="192"
   xmlns:inkscape="http://www.inkscape.org/namespaces/inkscape"
   xmlns:sodipodi="http://sodipodi.sourceforge.net/DTD/sodipodi-0.dtd"
   xmlns="http://www.w3.org/2000/svg"
   xmlns:svg="http://www.w3.org/2000/svg">
  <sodipodi:namedview
     id="namedview7"
     pagecolor="#505050"
     bordercolor="#eeeeee"
     borderopacity="1"
     inkscape:showpageshadow="0"
     inkscape:pageopacity="0"
     inkscape:pagecheckerboard="false"
     inkscape:deskcolor="#505050"
     inkscape:document-units="px"
     showgrid="true"
     showguides="true"
     inkscape:zoom="46.409876"
     inkscape:cx="9.3837786"
     inkscape:cy="6.5180092"
     inkscape:window-width="2560"
     inkscape:window-height="1001"
     inkscape:window-x="-9"
     inkscape:window-y="-9"
     inkscape:window-maximized="1"
     inkscape:current-layer="layer1"
     inkscape:lockguides="true">
    <inkscape:grid
       type="xygrid"
       id="grid9001" />
  </sodipodi:namedview>
  <defs
     id="defs2" />
  <g
     inkscape:label="Camada 1"
     inkscape:groupmode="layer"
     id="layer1">
    <rect
       style="fill:#ffffff;stroke:#ffffff;stroke-width:2;stroke-dasharray:none;stroke-opacity:1"
       id="rect1793"
       height="3.1241555"
       x="6.2711148"
       y="7.7305741"
       rx="2"
       ry="2"
       width="0" />
    <rect
       style="fill:none;stroke:#ffffff;stroke-width:0.529167;stroke-linecap:round;stroke-linejoin:round;stroke-dasharray:none;stroke-opacity:1"
       id="rect6022"
       x="1.3544916"
       y="1.4189913" />
    <rect
       style="fill:#784421;stroke-width:0.324047;stroke-linecap:round"
       id="rect362"
       width="1.0583333"
       height="3.175"
       x="1.5874997"
       y="0.79374987"
       rx="0.26458335"
       ry="0.39687505" />
    <rect
       style="fill:#a05a2c;stroke-width:0.324047;stroke-linecap:round"
       id="rect579"
       width="1.0583333"
       height="3.175"
       x="1.3229165"
       y="0.79374987"
       rx="0.26458335"
       ry="0.39687505" />
    <path
       id="rect486"
       style="fill:#808080;stroke-width:0.350011;stroke-linecap:round"
       d="m 1.3668416,0.52916666 c -0.1517428,0 -0.54674102,0.0795662 -0.57309162,0.26458332 L 0.48782551,1.0076904 C 0.34622834,1.0455807 0.2628666,1.1901045 0.30075683,1.3317016 0.33864706,1.4732987 0.48317088,1.5571773 0.62476805,1.5192871 L 1.3596069,1.3229166 c 0.00248,7.47e-5 0.00474,0 0.00723,0 h 1.2350667 c 0.029861,0 0.058511,-0.00542 0.085783,-0.015503 L 3.3362304,1.5006836 C 3.4766993,1.5425633 3.6235296,1.4633855 3.6654093,1.3229166 3.707289,1.1824478 3.6281113,1.0356175 3.4876423,0.99373777 L 3.1749999,0.79374998 C 3.1385486,0.62677893 2.7437321,0.52916666 2.6019083,0.52916666 Z"
       sodipodi:nodetypes="sccsccssccsccss" />
  </g>
</svg>
