<?xml version="1.0" encoding="UTF-8" standalone="no"?>
<!-- Created with Inkscape (http://www.inkscape.org/) -->

<svg
   width="16"
   height="16"
   version="1.1"
   viewBox="0 0 4.2333 4.2333"
   id="svg264"
   sodipodi:docname="new_item_category.svg"
   inkscape:version="1.2 (dc2aedaf03, 2022-05-15)"
   xmlns:inkscape="http://www.inkscape.org/namespaces/inkscape"
   xmlns:sodipodi="http://sodipodi.sourceforge.net/DTD/sodipodi-0.dtd"
   xmlns="http://www.w3.org/2000/svg"
   xmlns:svg="http://www.w3.org/2000/svg">
  <defs
     id="defs268" />
  <sodipodi:namedview
     id="namedview266"
     pagecolor="#505050"
     bordercolor="#eeeeee"
     borderopacity="1"
     inkscape:showpageshadow="0"
     inkscape:pageopacity="0"
     inkscape:pagecheckerboard="0"
     inkscape:deskcolor="#505050"
     showgrid="true"
     inkscape:lockguides="false"
     inkscape:zoom="35.974057"
     inkscape:cx="7.3664195"
     inkscape:cy="6.9077557"
     inkscape:window-width="2560"
     inkscape:window-height="1001"
     inkscape:window-x="-9"
     inkscape:window-y="-9"
     inkscape:window-maximized="1"
     inkscape:current-layer="svg264">
    <inkscape:grid
       type="xygrid"
       id="grid495" />
  </sodipodi:namedview>
  <path
     id="rect2064"
     style="fill:#35d4f4;stroke-width:0.264581;stroke-linecap:round"
     d="M 0.82319908 0.5291625 C 0.66033498 0.5291625 0.5291625 0.66033498 0.5291625 0.82319908 L 0.5291625 2.8809384 C 0.5291625 2.8860279 0.52942621 2.8909 0.52967926 2.8959245 A 0.79374373 0.79374367 0 0 0 0.5291625 2.9103937 A 0.79374373 0.79374367 0 0 0 1.3229062 3.7041375 A 0.79374373 0.79374367 0 0 0 2.11665 2.9103937 A 0.79374373 0.79374367 0 0 0 2.1161332 2.8959245 C 2.1161768 2.8950592 2.1160971 2.8942079 2.1161332 2.8933407 A 0.79374373 0.79374367 0 0 0 2.1161332 2.8928239 A 0.79374373 0.79374367 0 0 0 2.1161332 2.8923071 A 0.79374373 0.79374367 0 0 0 2.1161332 2.8917904 A 0.79374373 0.79374367 0 0 0 2.1161332 2.8912736 A 0.79374373 0.79374367 0 0 0 2.1161332 2.8907569 A 0.79374373 0.79374367 0 0 0 2.1161332 2.8902401 A 0.79374373 0.79374367 0 0 0 2.1161332 2.8897233 C 2.1162208 2.8867593 2.11665 2.8839244 2.11665 2.8809384 L 2.11665 0.82319908 C 2.11665 0.66033498 1.9854777 0.5291625 1.8226134 0.5291625 L 0.82319908 0.5291625 z M 1.3229062 2.6458125 A 0.26458126 0.26458126 0 0 1 1.5874875 2.9103937 A 0.26458126 0.26458126 0 0 1 1.3229062 3.174975 A 0.26458126 0.26458126 0 0 1 1.058325 2.9103937 A 0.26458126 0.26458126 0 0 1 1.3229062 2.6458125 z " />
  <path
     id="path2237"
     style="fill:#e0e0e0;fill-opacity:1;stroke-width:0.264581;stroke-linecap:round"
     d="m 0.82319908,0.5291625 c -0.16286376,0 -0.29403658,0.13117282 -0.29403658,0.29403658 V 2.8809384 c 0,0.00509 2.6371e-4,0.00996 5.1676e-4,0.014986 -2.1624e-4,0.00482 -3.885e-4,0.00964 -5.1676e-4,0.014469 -7e-8,0.4383726 0.3553711,0.7937438 0.7937437,0.7937438 0.4383726,0 0.7937439,-0.3553712 0.7937438,-0.7937438 -1.283e-4,-0.00482 -3.005e-4,-0.00965 -5.168e-4,-0.014469 4.36e-5,-8.653e-4 -3.61e-5,-0.00172 0,-0.00258 V 2.8928276 2.8923108 2.8917941 2.8912773 2.8907606 2.8902438 2.889727 c 8.76e-5,-0.00296 5.168e-4,-0.0058 5.168e-4,-0.00878 V 0.82319908 C 2.11665,0.66033532 1.9854775,0.5291625 1.8226134,0.5291625 Z M 2.6137734,0.88314327 c -0.075167,0 -0.1501566,0.028718 -0.2077377,0.086299 l -0.024804,0.0248045 1e-7,1.65156573 H 2.645813 l -5e-7,-0.5291625 0.2645817,0 H 3.503635 L 3.52844,2.091845 c 0.115162,-0.115162 0.1151622,-0.3003132 0,-0.4154752 L 2.821511,0.96944224 C 2.76393,0.91186124 2.6889401,0.88314324 2.6137734,0.88314327 Z M 1.3229062,2.6458125 c 0.1461242,0 0.2645813,0.118457 0.2645813,0.2645812 0,0.1461242 -0.1184571,0.2645813 -0.2645813,0.2645813 -0.1461242,0 -0.2645812,-0.1184571 -0.2645812,-0.2645813 0,-0.1461241 0.1184571,-0.2645812 0.2645812,-0.2645812 z"
     sodipodi:nodetypes="sssccsccccccccccssssssccccccsccssssss" />
  <g
     transform="matrix(0.26458,0,0,0.26458,3.4395563,-272.35864)"
     id="g2401">
    <path
       d="m -2,1038.4 v 2 h -2 v 2 h 2 v 2 h 2 v -2 h 2 v -2 H 0 v -2 z"
       fill="#5fff97"
       id="path2399" />
  </g>
  <g
     transform="matrix(0.39687187,0,0,0.39687065,3.7041375,-409.99383)"
     id="g5360" />
</svg>
