<?xml version="1.0" encoding="UTF-8" standalone="no"?>
<!-- Created with Inkscape (http://www.inkscape.org/) -->

<svg
   width="16"
   height="16"
   version="1.1"
   viewBox="0 0 4.2333 4.2333"
   id="svg38833"
   sodipodi:docname="new_inventory_item_from_resource.svg"
   inkscape:version="1.2 (dc2aedaf03, 2022-05-15)"
   xml:space="preserve"
   xmlns:inkscape="http://www.inkscape.org/namespaces/inkscape"
   xmlns:sodipodi="http://sodipodi.sourceforge.net/DTD/sodipodi-0.dtd"
   xmlns="http://www.w3.org/2000/svg"
   xmlns:svg="http://www.w3.org/2000/svg"><defs
     id="defs38837" /><sodipodi:namedview
     id="namedview38835"
     pagecolor="#505050"
     bordercolor="#eeeeee"
     borderopacity="1"
     inkscape:showpageshadow="0"
     inkscape:pageopacity="0"
     inkscape:pagecheckerboard="0"
     inkscape:deskcolor="#505050"
     showgrid="true"
     inkscape:zoom="35.974058"
     inkscape:cx="5.7402476"
     inkscape:cy="8.4644329"
     inkscape:window-width="2560"
     inkscape:window-height="1001"
     inkscape:window-x="-9"
     inkscape:window-y="-9"
     inkscape:window-maximized="1"
     inkscape:current-layer="svg38833"><inkscape:grid
       type="xygrid"
       id="grid245" /></sodipodi:namedview><rect
     x="6.2711"
     y="7.7306"
     width="0"
     height="3.1242"
     rx="2"
     ry="2"
     fill="#fff"
     stroke="#fff"
     stroke-width="2"
     id="rect38827"
     style="fill:#35d4f4;fill-opacity:1" /><rect
     x="1.3545"
     y="1.419"
     fill="none"
     stroke="#fff"
     stroke-linecap="round"
     stroke-linejoin="round"
     stroke-width=".52917"
     id="rect38829"
     style="fill:#35d4f4;fill-opacity:1" /><path
     id="path38831"
     style="fill:#e0e0e0;fill-opacity:1"
     d="M 0.77979122 0.26458125 C 0.49301151 0.27179824 0.26458125 0.50516404 0.26458125 0.79374375 L 0.26458125 3.4395562 C 0.26458125 3.732716 0.50058404 3.9687187 0.79374375 3.9687187 L 2.9103937 3.9687187 L 2.11665 3.174975 L 2.11665 2.9103937 L 2.6458125 2.9103937 L 2.6458125 2.4804492 L 2.11665 2.1497227 L 1.3229062 2.6458125 L 1.3229062 0.79374375 L 2.9103937 0.79374375 L 2.9103937 1.8520687 L 3.7041375 1.8520687 L 3.7041375 2.9103937 L 3.9687187 2.9103937 L 3.9687187 0.79374375 C 3.9687187 0.50058404 3.732716 0.26458125 3.4395562 0.26458125 L 0.79374375 0.26458125 C 0.78916275 0.26458125 0.78434322 0.26446669 0.77979122 0.26458125 z M 3.9687187 3.4395562 L 3.4395562 3.9687187 C 3.732716 3.9687187 3.9687188 3.732716 3.9687187 3.4395562 z " /><g
     transform="matrix(0.26458125,0,0,0.26458125,2.4524147,-274.29522)"
     id="g3412"><circle
       cx="3"
       cy="1048.4"
       fill="#e0e0e0"
       id="circle3408"
       r="0" /><path
       d="m 2.7310573,1051.7146 3,-3 h -2 v -4 h -2 v 4 h -1.99999999 z"
       fill="#5fb2ff"
       fill-rule="evenodd"
       id="path3410-8" /></g></svg>
