<?xml version="1.0" encoding="UTF-8" standalone="no"?>
<!-- Created with Inkscape (http://www.inkscape.org/) -->

<svg
   width="16"
   height="16"
   viewBox="0 0 4.2333333 4.2333332"
   version="1.1"
   id="svg5"
   inkscape:version="1.2 (dc2aedaf03, 2022-05-15)"
   sodipodi:docname="new_inventory_item.svg"
   inkscape:export-filename="desenho.png"
   inkscape:export-xdpi="25.4"
   inkscape:export-ydpi="25.4"
   xml:space="preserve"
   xmlns:inkscape="http://www.inkscape.org/namespaces/inkscape"
   xmlns:sodipodi="http://sodipodi.sourceforge.net/DTD/sodipodi-0.dtd"
   xmlns="http://www.w3.org/2000/svg"
   xmlns:svg="http://www.w3.org/2000/svg"><sodipodi:namedview
     id="namedview7"
     pagecolor="#505050"
     bordercolor="#eeeeee"
     borderopacity="1"
     inkscape:showpageshadow="0"
     inkscape:pageopacity="0"
     inkscape:pagecheckerboard="false"
     inkscape:deskcolor="#505050"
     inkscape:document-units="px"
     showgrid="true"
     showguides="true"
     inkscape:zoom="32.816738"
     inkscape:cx="15.34278"
     inkscape:cy="13.17925"
     inkscape:window-width="2560"
     inkscape:window-height="1001"
     inkscape:window-x="-9"
     inkscape:window-y="-9"
     inkscape:window-maximized="1"
     inkscape:current-layer="layer1"
     inkscape:lockguides="true"><inkscape:grid
       type="xygrid"
       id="grid9001" /></sodipodi:namedview><defs
     id="defs2" /><g
     inkscape:label="Camada 1"
     inkscape:groupmode="layer"
     id="layer1"><rect
       style="fill:#ffffff;stroke:#ffffff;stroke-width:2;stroke-dasharray:none;stroke-opacity:1"
       id="rect1793"
       height="3.1241555"
       x="6.2711148"
       y="7.7305741"
       rx="2"
       ry="2"
       width="0" /><rect
       style="fill:none;stroke:#ffffff;stroke-width:0.529167;stroke-linecap:round;stroke-linejoin:round;stroke-dasharray:none;stroke-opacity:1"
       id="rect6022"
       x="1.3544916"
       y="1.4189913" /><path
       id="rect31074"
       style="fill:#e0e0e0;stroke-width:0.529167;stroke-linecap:round;fill-opacity:1"
       d="M 0.77979735 0.26458333 C 0.49302121 0.27180035 0.26458333 0.50517284 0.26458333 0.79374998 L 0.26458333 3.4395833 C 0.26458333 3.732741 0.50059226 3.9687499 0.79374998 3.9687499 L 2.6458333 3.9687499 L 2.6458333 3.7041666 L 2.1166666 3.7041666 L 2.1166666 2.6458333 L 2.6458333 2.6458333 L 2.6458333 2.4804687 L 2.1166666 2.1497395 L 1.3229166 2.6458333 L 1.3229166 0.79374998 L 2.1166666 0.79374998 L 2.9104166 0.79374998 L 2.9104166 2.1166666 L 3.7041666 2.1166666 L 3.7041666 2.6458333 L 3.9687499 2.6458333 L 3.9687499 0.79374998 C 3.9687499 0.50059226 3.732741 0.26458333 3.4395833 0.26458333 L 0.79374998 0.26458333 C 0.78916899 0.26458333 0.78434897 0.26446877 0.77979735 0.26458333 z M 3.7041666 3.7041666 L 3.7041666 3.89847 C 3.7848909 3.8519954 3.8519954 3.7848909 3.89847 3.7041666 L 3.7041666 3.7041666 z " /><g
       transform="matrix(0.26458333,0,0,0.26458333,3.4395833,-272.36208)"
       id="g248"><path
         d="m -2,1038.4 v 2 h -2 v 2 h 2 v 2 h 2 v -2 h 2 v -2 H 0 v -2 z"
         fill="#5fff97"
         id="path246-9" /></g><g
       id="g380" /></g></svg>
