<?xml version="1.0" encoding="UTF-8" standalone="no"?>
<!-- Created with Inkscape (http://www.inkscape.org/) -->

<svg
   width="16"
   height="16"
   viewBox="0 0 4.2333333 4.2333332"
   version="1.1"
   id="svg5"
   inkscape:version="1.2 (dc2aedaf03, 2022-05-15)"
   sodipodi:docname="new_recipe.svg"
   inkscape:export-filename="icon.png"
   inkscape:export-xdpi="3072"
   inkscape:export-ydpi="3072"
   xmlns:inkscape="http://www.inkscape.org/namespaces/inkscape"
   xmlns:sodipodi="http://sodipodi.sourceforge.net/DTD/sodipodi-0.dtd"
   xmlns="http://www.w3.org/2000/svg"
   xmlns:svg="http://www.w3.org/2000/svg">
  <sodipodi:namedview
     id="namedview7"
     pagecolor="#505050"
     bordercolor="#eeeeee"
     borderopacity="1"
     inkscape:showpageshadow="0"
     inkscape:pageopacity="0"
     inkscape:pagecheckerboard="false"
     inkscape:deskcolor="#505050"
     inkscape:document-units="px"
     showgrid="true"
     showguides="true"
     inkscape:zoom="46.409876"
     inkscape:cx="9.2329486"
     inkscape:cy="8.3926102"
     inkscape:window-width="2560"
     inkscape:window-height="1001"
     inkscape:window-x="-9"
     inkscape:window-y="-9"
     inkscape:window-maximized="1"
     inkscape:current-layer="layer1"
     inkscape:lockguides="true">
    <inkscape:grid
       type="xygrid"
       id="grid9001" />
  </sodipodi:namedview>
  <defs
     id="defs2" />
  <g
     inkscape:label="Camada 1"
     inkscape:groupmode="layer"
     id="layer1">
    <path
       id="rect1518"
       style="fill:#e0e0e0;stroke-width:0.264583;stroke-linecap:round;fill-opacity:1"
       d="M 1.0583333 0.26458333 C 0.76517592 0.26458333 0.52916666 0.50059256 0.52916666 0.79374998 L 0.52916666 2.9104166 L 0.52916666 3.8364583 C 0.52916666 3.9097477 0.58816888 3.9687499 0.66145832 3.9687499 L 2.6458333 3.9687499 L 2.6458333 3.7041666 L 2.1166666 3.7041666 L 1.0583333 3.7041666 L 0.91932371 3.7041666 C 0.849232 3.7006365 0.79374998 3.6428742 0.79374998 3.5718749 C 0.79374998 3.4985856 0.85275228 3.4395833 0.92604165 3.4395833 L 1.0583333 3.4395833 L 2.1166666 3.4395833 L 2.1166666 2.6458333 L 2.6458333 2.6458333 L 2.6458333 2.1166666 L 3.7041666 2.1166666 L 3.7041666 0.79374998 C 3.7041666 0.50059256 3.4681573 0.26458333 3.1749999 0.26458333 L 1.0583333 0.26458333 z M 2.635498 1.0805542 C 2.7353678 1.079325 2.8360772 1.1159791 2.914034 1.1901082 C 2.916514 1.1924682 2.9188387 1.1949129 2.9212687 1.1973429 C 3.0767386 1.3528131 3.0767386 1.6030788 2.9212687 1.758549 L 2.7342 1.9456176 C 2.6046299 2.0751883 2.4092642 2.0971299 2.2577433 2.0107299 L 1.4055989 2.8623575 C 1.3537755 2.9141805 1.2749896 2.9188168 1.2283488 2.8721761 C 1.1817074 2.8255349 1.1853099 2.7457161 1.2371338 2.6938924 L 2.0949625 1.8365804 C 2.0241776 1.6890308 2.0503819 1.5070237 2.1729939 1.3844116 L 2.3600626 1.1973429 C 2.436583 1.1208225 2.5356282 1.0817834 2.635498 1.0805542 z " />
    <rect
       style="fill:#35d4f4;stroke:#ffffff;stroke-width:2;stroke-dasharray:none;stroke-opacity:1;fill-opacity:1"
       id="rect1793"
       height="3.1241555"
       x="6.2711148"
       y="7.7305741"
       rx="2"
       ry="2"
       width="0" />
    <rect
       style="fill:#35d4f4;stroke:#ffffff;stroke-width:0.529167;stroke-linecap:round;stroke-linejoin:round;stroke-dasharray:none;stroke-opacity:1;fill-opacity:1"
       id="rect6022"
       x="1.3544916"
       y="1.4189913" />
    <g
       id="g1599"
       transform="translate(1.0847919)"
       style="fill:#35d4f4;fill-opacity:1" />
    <g
       transform="matrix(0.26458333,0,0,0.26458333,3.4395833,-272.36208)"
       id="g248">
      <path
         d="m -2,1038.4 v 2 h -2 v 2 h 2 v 2 h 2 v -2 h 2 v -2 H 0 v -2 z"
         fill="#5fff97"
         id="path246-9" />
    </g>
  </g>
</svg>
