<!DOCTYPE svg PUBLIC "-//W3C//DTD SVG 1.1//EN" "http://www.w3.org/Graphics/SVG/1.1/DTD/svg11.dtd">
<!-- Uploaded to: SVG Repo, www.svgrepo.com, Transformed by: SVG Repo Mixer Tools -->
<svg width="800px" height="800px" viewBox="0 0 16 16" version="1.1" xmlns="http://www.w3.org/2000/svg" xmlns:xlink="http://www.w3.org/1999/xlink" class="si-glyph si-glyph-hat" fill="#000000">
<g id="SVGRepo_bgCarrier" stroke-width="0"/>
<g id="SVGRepo_tracerCarrier" stroke-linecap="round" stroke-linejoin="round"/>
<g id="SVGRepo_iconCarrier"> <title>629</title> <defs> </defs> <g stroke="none" stroke-width="1" fill="none" fill-rule="evenodd"> <g transform="translate(0.000000, 3.000000)" fill="#ffffff"> <path d="M12.708,5.211 C12.278,6.128 10.548,7.239 8,7.239 C5.468,7.239 3.667,6.142 3.288,5.226 C1.375,5.312 0,6.456 0,7.136 C0,8.264 3.581,9.864 8,9.864 C12.418,9.864 16,8.264 16,7.136 C16,6.447 14.625,5.569 12.708,5.211 L12.708,5.211 Z" class="si-glyph-fill"> </path> <path d="M10.077,0.197 C9.561,0.197 8.495,0.551 8.012,0.551 C7.529,0.551 6.463,0.197 5.948,0.197 C4.834,0.197 4.138,1.569 4.041,2.094 L4.021,4.521 C4.583,5.027 5.632,5.663 6.782,5.759 C7.182,5.792 7.604,5.812 8.043,5.812 C8.48,5.812 8.901,5.792 9.302,5.759 C10.452,5.662 11.376,5.105 11.97,4.538 L11.965,2.125 C11.879,1.579 11.181,0.197 10.077,0.197 L10.077,0.197 Z" class="si-glyph-fill"> </path> </g> </g> </g>
</svg>